<svg width="11" height="12" viewBox="0 0 11 12" fill="none" xmlns="http://www.w3.org/2000/svg">
<path fill-rule="evenodd" clip-rule="evenodd" d="M0 0V1.20468C0.635005 1.20468 1.15525 1.6961 1.20124 2.31945L1.20454 2.40936L1.20124 10.8421L5.42039 10.8408V9.63743H2.40905V2.40936C2.40905 2.05653 2.33322 1.72143 2.19698 1.41944L2.13493 1.29209L2.08685 1.20468H7.82945C8.46445 1.20468 8.98469 1.6961 9.03068 2.31945L9.03399 2.40936V5.4963C9.50754 5.61815 9.92468 5.88036 10.2385 6.23591V2.40936C10.2385 1.11903 9.22432 0.0656093 7.94968 0.00293605L7.82945 0H0ZM7.82945 4.8187V5.49625C7.456 5.59235 7.1176 5.77574 6.83729 6.02338H3.61359V4.8187H7.82945ZM3.61359 7.22806L6.09848 7.22733C6.04797 7.42404 6.0225 7.62633 6.02265 7.82942C6.0225 8.03264 6.04801 8.23507 6.09859 8.4319L3.61359 8.43274V7.22806ZM3.61359 2.40905V3.61374H6.62493V2.40905H3.61359ZM8.43162 6.02265C9.4297 6.02265 10.2385 6.83156 10.2385 7.82942C10.2385 8.82739 9.42968 9.63624 8.43162 9.63624C7.43373 9.63624 6.62493 8.82739 6.62493 7.82942C6.62493 6.83156 7.4337 6.02265 8.43162 6.02265ZM6.23012 11.4749L6.96591 9.74152C7.28264 9.98467 7.66153 10.1509 8.07466 10.2123L7.3389 11.9456L6.23012 11.4749ZM9.89755 9.74143C9.58082 9.98459 9.20196 10.1508 8.78883 10.2122L9.52456 11.9455L10.6333 11.4749L9.89755 9.74143ZM9.03399 7.82944C9.03399 7.49682 8.76438 7.22719 8.43167 7.22719C8.09905 7.22719 7.82945 7.49682 7.82945 7.82944C7.82945 8.16209 8.09905 8.43173 8.43167 8.43173C8.76438 8.43173 9.03399 8.16209 9.03399 7.82944Z" fill="white"/>
</svg>
