<svg width="33" height="28" viewBox="0 0 33 28" fill="none" xmlns="http://www.w3.org/2000/svg">
<path d="M16.0547 0C15.8621 0 15.6693 0.0368573 15.4927 0.110958L0.240827 7.14472C-0.0802755 7.29292 -0.0802755 7.52477 0.240827 7.67297L15.4927 14.7091C15.6693 14.7832 15.8621 14.8201 16.0547 14.8201C16.2474 14.8201 16.4401 14.7832 16.6167 14.7091L31.8686 7.67297C32.1897 7.52477 32.1897 7.29292 31.8686 7.14472L16.6167 0.110958C16.4401 0.0368573 16.2474 0 16.0547 0ZM16.0547 2.57133L26.5426 7.41005L16.0547 12.2488L5.5668 7.41005L16.0547 2.57133ZM2.27184 11.6675L0.240827 12.683C-0.0802755 12.8435 -0.0802755 13.0917 0.240827 13.2522L15.4927 20.8745C15.6693 20.9548 15.8621 20.9951 16.0547 20.9951C16.2474 20.9951 16.4401 20.9548 16.6167 20.8745L31.8686 13.2522C32.1897 13.0917 32.1897 12.8435 31.8686 12.683L29.8376 11.6675L16.6167 18.2743C16.4401 18.3545 16.2474 18.3949 16.0547 18.3949C15.8621 18.3949 15.6693 18.3545 15.4927 18.2743L2.27184 11.6675ZM2.27184 17.8425L0.240827 18.858C-0.0802755 19.0185 -0.0802755 19.2667 0.240827 19.4273L15.4927 27.0496C15.6693 27.1299 15.8621 27.1702 16.0547 27.1702C16.2474 27.1702 16.4401 27.1299 16.6167 27.0496L31.8686 19.4273C32.1897 19.2667 32.1897 19.0185 31.8686 18.858L29.8376 17.8425L16.6167 24.4493C16.4401 24.5296 16.2474 24.5699 16.0547 24.5699C15.8621 24.5699 15.6693 24.5296 15.4927 24.4493L2.27184 17.8425Z" fill="white"/>
</svg>
