<svg width="23" height="36" viewBox="0 0 23 36" fill="none" xmlns="http://www.w3.org/2000/svg">
<g clip-path="url(#clip0_8_55)">
<path d="M21.3209 25.8996L19.7282 30.9265H3.15606L1.56331 25.8996H21.3209ZM21.632 24.4592H1.25217C0.407636 24.4592 -0.192425 25.2515 0.0594521 26.0364L1.79296 31.5098C1.94854 32.0212 2.43747 32.3668 2.98568 32.3668H19.9059C20.4541 32.3668 20.9431 32.0212 21.0986 31.5098L22.8322 26.0364C23.0766 25.2515 22.4766 24.4592 21.632 24.4592Z" fill="white"/>
<path d="M3.31128 25.0714C3.31128 22.7236 5.27445 20.8152 7.68952 20.8152H15.194C17.6091 20.8152 19.5722 22.7236 19.5722 25.0714" stroke="white" stroke-width="1.47638" stroke-miterlimit="10"/>
<path d="M11.1272 28.4126H11.7569" stroke="white" stroke-width="1.47638" stroke-miterlimit="10" stroke-linecap="round" stroke-linejoin="round"/>
<path d="M15.1201 20.8149V19.5113C15.1201 18.8776 15.3572 18.2726 15.7647 17.7757C16.6685 16.681 17.2908 15.4639 17.513 13.6418C17.55 13.3321 17.8167 13.0873 18.1353 13.0873C18.4983 13.0873 18.7872 12.7992 18.7872 12.4463V11.8774C18.7872 11.5245 18.4909 11.2364 18.1279 11.2364H18.1204C17.7945 11.2364 17.5352 10.9987 17.4982 10.6891C17.0166 6.64165 14.4831 3.55927 11.4457 3.55927C8.40093 3.55927 5.87476 6.64165 5.37101 10.6891C5.33397 10.9987 5.06727 11.2436 4.74872 11.2436H4.7339C4.31905 11.2436 3.97827 11.5749 3.97827 11.9782V12.3455C3.97827 12.7488 4.31905 13.0801 4.7339 13.0801C5.05986 13.0801 5.31915 13.3177 5.35619 13.6347C5.57843 15.4567 6.20813 16.681 7.10452 17.7757C7.51193 18.2726 7.74904 18.8848 7.74904 19.5185V20.8149" stroke="white" stroke-width="1.47638" stroke-miterlimit="10"/>
<path d="M4.80786 11.2439H10.2899C11.4011 11.2439 12.4235 10.4589 12.4975 9.38583C12.5198 9.04014 12.4901 8.33436 12.6087 8.01028C12.6753 7.83023 12.9716 7.88784 13.0309 8.07509L13.6532 10.5669C13.7865 10.9774 14.1792 11.2511 14.6163 11.2511H17.9796" stroke="white" stroke-width="1.47638" stroke-miterlimit="10"/>
</g>
<defs>
<clipPath id="clip0_8_55">
<rect width="22.8838" height="35.2059" fill="white"/>
</clipPath>
</defs>
</svg>
