<svg width="37" height="35" viewBox="0 0 37 35" fill="none" xmlns="http://www.w3.org/2000/svg">
<g clip-path="url(#clip0_8_44)">
<path d="M33.964 29.2364C33.8819 30.7141 32.6586 31.8882 31.1562 31.8882H4.44972C2.95553 31.8882 1.72406 30.7141 1.64196 29.2364H33.964ZM34.1282 27.5944H1.48598C0.664995 27.5944 0 28.2594 0 29.0804C0 31.5351 1.99498 33.5301 4.44972 33.5301H31.1562C33.611 33.5301 35.6059 31.5351 35.6059 29.0804C35.6142 28.2594 34.9492 27.5944 34.1282 27.5944Z" fill="white"/>
<path d="M31.4847 13.4822V28.342H3.38257V8.30187C3.38257 7.89138 3.71096 7.56299 4.12145 7.56299H22.9876" stroke="white" stroke-width="1.64196" stroke-miterlimit="10"/>
<path d="M33.9722 2.33325V12.4067H26.2632C25.6967 12.4067 25.1467 12.6119 24.7198 12.9732L23.8988 13.5314V2.33325H33.9722ZM34.1282 0.691284H23.7428C22.9218 0.691284 22.2568 1.35628 22.2568 2.17726V15.3786C22.2568 15.7891 22.5934 16.0601 22.9383 16.0601C23.1024 16.0601 23.2749 15.9944 23.4144 15.863L25.7378 14.2703C25.8774 14.1307 26.0662 14.0486 26.2632 14.0486H34.1282C34.9492 14.0486 35.6142 13.3837 35.6142 12.5627V2.17726C35.6142 1.35628 34.9492 0.691284 34.1282 0.691284Z" fill="white"/>
<path d="M26.3372 5.72375H31.534" stroke="white" stroke-width="1.64196" stroke-miterlimit="10" stroke-linecap="round" stroke-linejoin="round"/>
<path d="M27.823 9.01575H30.0396" stroke="white" stroke-width="1.64196" stroke-miterlimit="10" stroke-linecap="round" stroke-linejoin="round"/>
<path d="M8.98145 28.3338V22.6116C8.98145 20.8547 10.6398 19.4344 12.6923 19.4344C14.7447 19.4344 16.4031 20.8547 16.4031 22.6116V28.3338" stroke="white" stroke-width="1.64196" stroke-miterlimit="10"/>
<path d="M12.6924 19.4344C13.9212 19.4344 14.9172 18.4382 14.9172 17.2095C14.9172 15.9808 13.9212 14.9847 12.6924 14.9847C11.4636 14.9847 10.4675 15.9808 10.4675 17.2095C10.4675 18.4382 11.4636 19.4344 12.6924 19.4344Z" stroke="white" stroke-width="1.64196" stroke-miterlimit="10"/>
</g>
<defs>
<clipPath id="clip0_8_44">
<rect width="36.1232" height="34.222" fill="white"/>
</clipPath>
</defs>
</svg>
