<svg width="22" height="22" viewBox="0 0 22 22" fill="none" xmlns="http://www.w3.org/2000/svg">
<path d="M19.2568 21.251C19.121 21.2763 18.9816 21.2912 18.8389 21.293C18.9802 21.2912 19.1197 21.2766 19.2568 21.251ZM19.46 21.2031C19.4036 21.2188 19.347 21.2345 19.2891 21.2461C19.3468 21.2345 19.4034 21.2188 19.46 21.2031ZM19.6455 21.1436C19.6051 21.1584 19.5648 21.1738 19.5234 21.1865C19.5647 21.1739 19.605 21.1584 19.6455 21.1436ZM19.8301 21.0674C19.8042 21.0794 19.7793 21.0934 19.7529 21.1045C19.7793 21.0935 19.8042 21.0793 19.8301 21.0674ZM21.0654 19.7861C21.0478 19.8285 21.0268 19.8691 21.0068 19.9102C21.0267 19.8689 21.0479 19.8284 21.0654 19.7861ZM21.2412 19.0947C21.2297 19.2094 21.2075 19.3211 21.1807 19.4307C21.2077 19.3204 21.2297 19.2086 21.2412 19.0947ZM21.2412 5.14551C21.241 5.14354 21.2404 5.14161 21.2402 5.13965C21.2404 5.14161 21.241 5.14354 21.2412 5.14551ZM21.1445 4.67285C21.1515 4.69542 21.1568 4.71843 21.1631 4.74121C21.1568 4.7184 21.1515 4.69539 21.1445 4.67285ZM20.8018 3.98047C20.6407 3.75362 20.443 3.55512 20.2158 3.39453C20.3295 3.47468 20.4384 3.56338 20.5381 3.66309C20.6362 3.76125 20.7226 3.86869 20.8018 3.98047ZM19.835 3.17578C19.9514 3.22976 20.0649 3.29038 20.1719 3.3623C20.0657 3.29071 19.9521 3.23026 19.835 3.17578ZM19.627 3.08984C19.6675 3.10429 19.7083 3.1182 19.748 3.13477C19.7084 3.11819 19.6676 3.10436 19.627 3.08984ZM19.4023 3.02246C19.4447 3.0331 19.4876 3.04181 19.5293 3.05469C19.4877 3.04182 19.4449 3.03313 19.4023 3.02246ZM18.8486 2.94824C18.9177 2.9494 18.9865 2.95108 19.0547 2.95801C18.9868 2.95117 18.918 2.94939 18.8486 2.94824ZM21.1475 19.5615C21.1272 19.6278 21.1027 19.6921 21.0771 19.7559C21.1027 19.6919 21.1273 19.6275 21.1475 19.5615ZM20.959 4.23047C20.9744 4.25894 20.9877 4.28835 21.002 4.31738C20.9877 4.28833 20.9744 4.25887 20.959 4.23047Z" fill="white" stroke="#51A4DA" stroke-width="1.22325"/>
</svg>
