<svg width="22" height="22" viewBox="0 0 22 22" fill="none" xmlns="http://www.w3.org/2000/svg">
<path d="M6.52096 8.61046H15.322M6.52096 13.2272H12.7974M10.9215 21.0193C13.1156 21.0188 15.2499 20.3039 17.0016 18.9826C18.7533 17.6613 20.0271 15.8056 20.6304 13.696C21.2337 11.5865 21.1337 9.33783 20.3454 7.29019C19.5572 5.24254 18.1236 3.50725 16.2615 2.34676C14.3994 1.18628 12.21 0.663705 10.0245 0.858083C7.83901 1.05246 5.77623 1.95321 4.14815 3.42412C2.52007 4.89502 1.41524 6.85607 1.00073 9.01069C0.586229 11.1653 0.884603 13.3963 1.85073 15.3663C1.96866 15.6065 2.00797 15.8773 1.94791 16.1372L1.05689 19.9983C1.03177 20.1067 1.03465 20.2196 1.06526 20.3266C1.09587 20.4335 1.15321 20.5309 1.23186 20.6095C1.31051 20.6882 1.40789 20.7455 1.51483 20.7761C1.62176 20.8067 1.73473 20.8096 1.84309 20.7845L5.7031 19.8924C5.96371 19.8353 6.23604 19.87 6.47401 19.9907C7.85792 20.6703 9.3797 21.0222 10.9215 21.0193Z" stroke="white" stroke-width="1.63791" stroke-linecap="round" stroke-linejoin="round"/>
</svg>
