<svg width="24" height="24" viewBox="0 0 24 24" fill="none" xmlns="http://www.w3.org/2000/svg">
<circle cx="11.5583" cy="11.5583" r="11.5583" fill="#F2F2F7"/>
<path d="M6.50156 10.1137L10.6827 14.2949C10.7673 14.3795 10.9045 14.3795 10.9892 14.2949L22.3943 2.88977" stroke="#34C759" stroke-width="1.73375"/>
<path d="M22.1889 9.45839C22.6687 11.8874 22.3022 14.4074 21.1505 16.5991C19.9987 18.7908 18.1311 20.522 15.8585 21.5045C13.5859 22.4871 11.0453 22.6617 8.65964 21.9994C6.27397 21.3371 4.18705 19.8777 2.74622 17.8642C1.30538 15.8507 0.597531 13.4046 0.740469 10.9328C0.883408 8.46099 1.86851 6.1127 3.53184 4.27872C5.19516 2.44474 7.43639 1.23568 9.88251 0.852769C12.3286 0.469857 14.8321 0.936183 16.9763 2.17414" stroke="#34C759" stroke-width="1.44479" stroke-linecap="round"/>
</svg>
