<svg width="61" height="61" viewBox="0 0 61 61" fill="none" xmlns="http://www.w3.org/2000/svg">
<path d="M52.5951 0.205534C54.7908 -0.185008 57.0971 -0.160623 58.8168 1.55905C60.5363 3.27884 60.5599 5.58507 60.1694 7.78073C59.7759 9.99211 58.8182 12.8469 57.6528 16.3432L48.3334 44.3022C47.1684 47.7972 46.2688 50.4977 45.4897 52.4946C44.7391 54.4182 43.982 56.0249 42.9789 57.0688C38.7417 61.4782 31.6869 61.4782 27.4496 57.0688C26.4465 56.0249 25.6894 54.4182 24.9389 52.4946C24.1598 50.4977 23.2601 47.7971 22.0951 44.3022C21.5997 42.8159 21.4225 42.308 21.1928 41.8735C20.5863 40.7268 19.649 39.7886 18.5024 39.1821C18.0679 38.9523 17.5593 38.7763 16.0727 38.2807C12.5778 37.1158 9.87712 36.2161 7.88029 35.437C5.95676 34.6865 4.3509 33.9283 3.30705 32.9253C-1.10232 28.688 -1.10238 21.6342 3.30705 17.3969C4.35091 16.3939 5.95673 15.6358 7.88029 14.8852C9.87712 14.1061 12.5778 13.2064 16.0727 12.0415L44.0317 2.72214C47.5282 1.55664 50.3837 0.598933 52.5951 0.205534ZM55.7709 4.60495C55.6083 4.44239 55.1895 4.11934 53.349 4.44674C51.5239 4.77146 49.0294 5.59626 45.394 6.80807L17.435 16.1284C13.8944 17.3086 11.318 18.1678 9.4467 18.8979C7.50237 19.6565 6.64883 20.159 6.29142 20.5024C3.64578 23.0447 3.64583 27.2774 6.29142 29.8198C6.64884 30.1632 7.50247 30.6657 9.4467 31.4243C11.318 32.1544 13.8945 33.0136 17.435 34.1938C18.7833 34.6433 19.6934 34.9394 20.516 35.3745C22.4272 36.3853 23.9896 37.9486 25.0004 39.8598C25.4354 40.6824 25.7317 41.5918 26.1811 42.9399C27.3614 46.4808 28.2214 49.0578 28.9516 50.9292C29.7102 52.8734 30.2117 53.7271 30.5551 54.0844C33.0973 56.73 37.3301 56.7297 39.8725 54.0844C40.2158 53.7271 40.7183 52.8735 41.477 50.9292C42.2071 49.0578 43.0672 46.4808 44.2475 42.9399L53.5668 14.9809C54.7786 11.3455 55.6044 8.851 55.9291 7.02585C56.2563 5.18657 55.9335 4.7677 55.7709 4.60495Z" fill="white"/>
</svg>
