<svg width="29" height="29" viewBox="0 0 29 29" fill="none" xmlns="http://www.w3.org/2000/svg">
<path d="M21.0446 13.6868C20.0629 12.0283 18.5634 10.7384 16.7768 10.0156C14.9902 9.2928 13.0156 9.17711 11.1568 9.68636C9.29807 10.1956 7.65816 11.3016 6.48947 12.8341C5.32078 14.3665 4.68808 16.2406 4.68874 18.1679C4.68874 18.4787 4.56524 18.7769 4.34543 18.9967C4.12561 19.2165 3.82747 19.34 3.51661 19.34C3.20574 19.34 2.9076 19.2165 2.68778 18.9967C2.46797 18.7769 2.34447 18.4787 2.34447 18.1679C2.34432 15.8104 3.09238 13.5137 4.48092 11.6086C5.86945 9.70341 7.82681 8.2881 10.0711 7.56645C12.3154 6.84481 14.7308 6.85408 16.9695 7.59291C19.2082 8.33175 21.1547 9.76204 22.5286 11.6778L23.158 8.10865C23.2119 7.80245 23.3853 7.53021 23.6399 7.35183C23.8946 7.17345 24.2097 7.10353 24.5159 7.15747C24.8221 7.21141 25.0943 7.38477 25.2727 7.63943C25.4511 7.89409 25.521 8.20918 25.4671 8.51538L24.2457 15.4415C24.1914 15.7476 24.0177 16.0195 23.7628 16.1975C23.5967 16.3089 23.407 16.3801 23.2087 16.4055C23.0103 16.431 22.8088 16.4099 22.62 16.344L15.9623 15.1707C15.6561 15.1168 15.3838 14.9434 15.2055 14.6888C15.0271 14.4341 14.9572 14.119 15.0111 13.8128C15.065 13.5066 15.2384 13.2344 15.4931 13.056C15.7477 12.8776 16.0628 12.8077 16.369 12.8616L21.0446 13.6868Z" fill="white"/>
</svg>
