<svg width="46" height="46" viewBox="0 0 46 46" fill="none" xmlns="http://www.w3.org/2000/svg">
<path fill-rule="evenodd" clip-rule="evenodd" d="M14.3776 14.3776C16.5548 12.2004 19.5078 10.9772 22.5868 10.9772C25.6659 10.9772 28.6189 12.2004 30.7961 14.3776C32.9733 16.5548 34.1965 19.5078 34.1965 22.5868C34.1965 25.6659 32.9733 28.6189 30.7961 30.7961C28.6189 32.9733 25.6659 34.1965 22.5868 34.1965C19.5078 34.1965 16.5548 32.9733 14.3776 30.7961C12.2004 28.6189 10.9772 25.6659 10.9772 22.5868C10.9772 19.5078 12.2004 16.5548 14.3776 14.3776ZM19.7027 29.5496C20.6171 29.9284 21.5971 30.1233 22.5868 30.1233C24.5856 30.1233 26.5026 29.3293 27.9159 27.9159C29.3293 26.5026 30.1233 24.5856 30.1233 22.5868C30.1233 20.588 29.3293 18.6711 27.9159 17.2577C26.5026 15.8444 24.5856 15.0504 22.5868 15.0504C21.5971 15.0504 20.6171 15.2453 19.7027 15.624C18.7884 16.0028 17.9576 16.5579 17.2577 17.2577C16.5579 17.9576 16.0028 18.7884 15.624 19.7028C15.2453 20.6171 15.0504 21.5971 15.0504 22.5868C15.0504 23.5765 15.2453 24.5566 15.624 25.4709C16.0028 26.3853 16.5579 27.2161 17.2577 27.9159C17.9576 28.6158 18.7884 29.1709 19.7027 29.5496Z" fill="white"/>
<path d="M36.7702 12.7069C37.2848 12.1923 37.5739 11.4942 37.5739 10.7664C37.5739 10.0386 37.2848 9.34054 36.7702 8.82588C36.2555 8.31123 35.5575 8.0221 34.8296 8.0221C34.1018 8.0221 33.4038 8.31123 32.8891 8.82588C32.3745 9.34054 32.0853 10.0386 32.0853 10.7664C32.0853 11.4942 32.3745 12.1923 32.8891 12.7069C33.4038 13.2216 34.1018 13.5107 34.8296 13.5107C35.5575 13.5107 36.2555 13.2216 36.7702 12.7069Z" fill="white"/>
<path fill-rule="evenodd" clip-rule="evenodd" d="M13.275 0.135521C15.6843 0.0255985 16.4522 0 22.5868 0C28.7229 0 29.4894 0.0271039 31.8971 0.135521C34.3019 0.245444 35.9462 0.62942 37.3827 1.18506C38.8893 1.75252 40.2541 2.64149 41.3821 3.79007C42.531 4.91839 43.42 6.28375 43.9871 7.79095C44.5457 9.22747 44.9282 10.8703 45.0381 13.275C45.1481 15.6843 45.1737 16.4522 45.1737 22.5868C45.1737 28.7214 45.1481 29.4894 45.0381 31.8986C44.9282 34.3034 44.5457 35.9462 43.9886 37.3827C43.4211 38.8893 42.5322 40.2541 41.3836 41.3821C40.2543 42.5325 38.8885 43.4209 37.3827 43.9871C35.9462 44.5457 34.3034 44.9282 31.8986 45.0381C29.4894 45.1481 28.7214 45.1737 22.5868 45.1737C16.4522 45.1737 15.6843 45.1481 13.275 45.0381C10.8703 44.9282 9.22747 44.5457 7.79095 43.9886C6.28442 43.4211 4.91964 42.5321 3.79158 41.3836C2.64115 40.2543 1.75274 38.8885 1.18656 37.3827C0.627914 35.9462 0.245444 34.3034 0.135521 31.8986C0.0255985 29.4894 0 28.7229 0 22.5868C0 16.4507 0.0271039 15.6843 0.135521 13.2765C0.245444 10.8718 0.62942 9.22747 1.18506 7.79095C1.75252 6.2844 2.64149 4.91961 3.79007 3.79158C4.91941 2.64115 6.28516 1.75274 7.79095 1.18656C9.22747 0.627914 10.8703 0.245444 13.275 0.135521ZM31.7149 4.20115C29.3328 4.09273 28.6175 4.07015 22.5868 4.07015C16.5561 4.07015 15.8409 4.09273 13.4587 4.20115C11.2573 4.30204 10.0617 4.66945 9.26512 4.97964C8.28396 5.341 7.39635 5.91782 6.66763 6.66763C5.8786 7.45817 5.38771 8.21107 4.97964 9.26512C4.66795 10.0617 4.30204 11.2573 4.20115 13.4587C4.09273 15.8409 4.07015 16.5561 4.07015 22.5868C4.07015 28.6175 4.09273 29.3328 4.20115 31.7149C4.30204 33.9164 4.66945 35.112 4.97964 35.9086C5.34123 36.8896 5.91802 37.7772 6.66763 38.506C7.39644 39.2557 8.28403 39.8325 9.26512 40.194C10.0617 40.5057 11.2573 40.8716 13.4587 40.9725C15.8409 41.0809 16.5546 41.1035 22.5868 41.1035C28.619 41.1035 29.3328 41.0809 31.7149 40.9725C33.9164 40.8716 35.112 40.5042 35.9086 40.194C36.8897 39.8327 37.7774 39.2559 38.506 38.506C39.2557 37.7772 39.8325 36.8896 40.194 35.9086C40.5057 35.112 40.8716 33.9164 40.9725 31.7149C41.0809 29.3328 41.1035 28.6175 41.1035 22.5868C41.1035 16.5561 41.0809 15.8409 40.9725 13.4587C40.8716 11.2573 40.5042 10.0617 40.194 9.26512C39.786 8.21107 39.2966 7.45817 38.506 6.66763C37.7155 5.8786 36.9626 5.38771 35.9086 4.97964C35.112 4.66795 33.9164 4.30204 31.7149 4.20115Z" fill="white"/>
</svg>
