<svg width="24" height="18" viewBox="0 0 24 18" fill="none" xmlns="http://www.w3.org/2000/svg">
<path d="M19.6758 0.636719C19.5106 0.623338 19.3224 0.617106 19.1035 0.614258C19.2892 0.618473 19.4747 0.625266 19.6602 0.635742L19.668 0.636719H19.6758ZM19.6758 0.636719C19.8665 0.652332 20.0258 0.67998 20.166 0.720703C20.0245 0.679669 19.8652 0.652221 19.6758 0.636719ZM9.61133 14.9736C9.6022 14.9726 9.59306 14.9719 9.58398 14.9707C9.59307 14.9719 9.60221 14.9726 9.61133 14.9736ZM13.6572 14.9707C13.6478 14.9719 13.6384 14.9726 13.6289 14.9736C13.6383 14.9726 13.6478 14.972 13.6572 14.9707ZM9.42773 14.9414C9.41264 14.9378 9.39773 14.9338 9.38281 14.9297C9.39775 14.9338 9.41268 14.9378 9.42773 14.9414ZM13.8594 14.9287C13.8432 14.9331 13.827 14.9375 13.8105 14.9414C13.8269 14.9375 13.8431 14.9332 13.8594 14.9287ZM9.23926 14.8838C9.23095 14.8806 9.22308 14.8764 9.21484 14.873C9.22309 14.8764 9.23096 14.8806 9.23926 14.8838ZM14.0225 14.874C14.0152 14.8769 14.0083 14.881 14.001 14.8838C14.0083 14.881 14.0152 14.8769 14.0225 14.874ZM9.08594 14.8135C9.07662 14.8087 9.06682 14.8048 9.05762 14.7998C9.06684 14.8048 9.07662 14.8087 9.08594 14.8135ZM14.1768 14.8027C14.1729 14.8048 14.1689 14.8066 14.165 14.8086C14.1689 14.8066 14.1729 14.8048 14.1768 14.8027ZM8.91797 14.7139C8.91373 14.7109 8.90948 14.7081 8.90527 14.7051C8.90948 14.708 8.91373 14.7109 8.91797 14.7139ZM14.3359 14.7051C14.3317 14.7081 14.3275 14.7109 14.3232 14.7139C14.3275 14.7109 14.3317 14.708 14.3359 14.7051ZM14.6055 14.4619C14.5992 14.469 14.5933 14.4764 14.5869 14.4834C14.5933 14.4764 14.5992 14.469 14.6055 14.4619ZM14.8936 14.0674L14.7109 14.3291C14.7097 14.3309 14.7073 14.3322 14.7061 14.334C14.7647 14.2505 14.8162 14.1618 14.8574 14.0674H14.8936ZM8.38379 14.0674C8.42414 14.1598 8.47413 14.2471 8.53125 14.3291L8.34863 14.0674H8.38379ZM2.03418 1.61426C1.93362 1.81137 1.88521 2.03865 1.86035 2.34082C1.83441 2.64802 1.83496 3.03587 1.83496 3.54785V3.52344C1.83496 3.02152 1.83492 2.64307 1.85938 2.3418C1.8845 2.03518 1.93463 1.80853 2.03418 1.61426ZM21.207 1.61426C21.307 1.81029 21.3568 2.03564 21.3818 2.34082C21.3631 2.11322 21.3302 1.9283 21.2725 1.7666C21.2534 1.71336 21.231 1.6621 21.2061 1.61328L21.207 1.61426ZM20.4033 0.810547L20.4043 0.811523C20.3737 0.795888 20.3418 0.782766 20.3096 0.769531C20.3415 0.782666 20.3732 0.795109 20.4033 0.810547ZM3.56445 0.636719C3.33697 0.655409 3.15188 0.687488 2.99023 0.745117C3.15082 0.687704 3.33521 0.655537 3.56445 0.636719ZM3.8418 0.621094C3.76092 0.624106 3.68493 0.628499 3.61328 0.633789C3.68491 0.628683 3.76086 0.62404 3.8418 0.621094Z" fill="white" stroke="#51A4DA" stroke-width="1.22325"/>
</svg>
