<svg width="43" height="39" viewBox="0 0 43 39" fill="none" xmlns="http://www.w3.org/2000/svg">
<path d="M0 4.23189C0 3.10953 0.445859 2.03313 1.23949 1.23949C2.03313 0.445859 3.10953 0 4.23189 0H38.087C39.2094 0 40.2858 0.445859 41.0794 1.23949C41.8731 2.03313 42.3189 3.10953 42.3189 4.23189V27.5073C42.3189 28.6297 41.8731 29.7061 41.0794 30.4997C40.2858 31.2933 39.2094 31.7392 38.087 31.7392H28.3833L22.6554 37.4671C22.2586 37.8637 21.7205 38.0866 21.1595 38.0866C20.5984 38.0866 20.0603 37.8637 19.6635 37.4671L13.9356 31.7392H4.23189C3.10953 31.7392 2.03313 31.2933 1.23949 30.4997C0.445859 29.7061 0 28.6297 0 27.5073V4.23189ZM38.087 4.23189H4.23189V27.5073H14.8116C15.3728 27.5074 15.9109 27.7304 16.3076 28.1273L21.1595 32.9791L26.0113 28.1273C26.4081 27.7304 26.9462 27.5074 27.5073 27.5073H38.087V4.23189ZM8.46379 11.6377C8.46379 11.0765 8.68672 10.5383 9.08353 10.1415C9.48035 9.74469 10.0185 9.52176 10.5797 9.52176H31.7392C32.3004 9.52176 32.8386 9.74469 33.2354 10.1415C33.6322 10.5383 33.8551 11.0765 33.8551 11.6377C33.8551 12.1989 33.6322 12.7371 33.2354 13.1339C32.8386 13.5307 32.3004 13.7537 31.7392 13.7537H10.5797C10.0185 13.7537 9.48035 13.5307 9.08353 13.1339C8.68672 12.7371 8.46379 12.1989 8.46379 11.6377ZM8.46379 20.1015C8.46379 19.5403 8.68672 19.0021 9.08353 18.6053C9.48035 18.2085 10.0185 17.9855 10.5797 17.9855H23.2754C23.8366 17.9855 24.3748 18.2085 24.7716 18.6053C25.1684 19.0021 25.3914 19.5403 25.3914 20.1015C25.3914 20.6627 25.1684 21.2009 24.7716 21.5977C24.3748 21.9945 23.8366 22.2174 23.2754 22.2174H10.5797C10.0185 22.2174 9.48035 21.9945 9.08353 21.5977C8.68672 21.2009 8.46379 20.6627 8.46379 20.1015Z" fill="#36558D"/>
</svg>
