<svg width="44" height="44" viewBox="0 0 44 44" fill="none" xmlns="http://www.w3.org/2000/svg">
<path d="M18.8529 18.8531C18.098 19.6041 17.6719 20.6238 17.668 21.6885C17.668 22.7548 18.0915 23.7773 18.8455 24.5313C19.5994 25.2853 20.622 25.7088 21.6883 25.7088C22.753 25.7049 23.7727 25.2787 24.5236 24.5239" stroke="#36558D" stroke-width="3.17392" stroke-linecap="round" stroke-linejoin="round"/>
<path d="M21.6883 9.62756C19.3029 9.62756 16.9711 10.3349 14.9877 11.6602C13.0043 12.9855 11.4584 14.8691 10.5455 17.073C9.63267 19.2768 9.39382 21.7018 9.85919 24.0414C10.3246 26.381 11.4733 28.5301 13.16 30.2168C14.8467 31.9035 16.9958 33.0522 19.3354 33.5176C21.675 33.983 24.1 33.7441 26.3038 32.8313C28.5077 31.9184 30.3913 30.3725 31.7166 28.3891C33.0419 26.4057 33.7492 24.0739 33.7492 21.6885" stroke="#36558D" stroke-width="3.17392" stroke-linecap="round" stroke-linejoin="round"/>
<path d="M21.6884 1.58691C17.7127 1.58691 13.8263 2.76585 10.5206 4.97463C7.21495 7.18341 4.63849 10.3228 3.11706 13.9959C1.59562 17.669 1.19755 21.7107 1.97317 25.61C2.74879 29.5093 4.66327 33.0911 7.47451 35.9023C10.2858 38.7136 13.8675 40.628 17.7668 41.4037C21.6661 42.1793 25.7079 41.7812 29.3809 40.2598C33.054 38.7383 36.1934 36.1619 38.4022 32.8562C40.611 29.5505 41.7899 25.6641 41.7899 21.6884M29.1471 14.2318L23.6986 19.6783" stroke="#36558D" stroke-width="3.17392" stroke-linecap="round" stroke-linejoin="round"/>
<path d="M40.6053 8.66253L33.7496 9.6274L34.7145 2.77173C34.7216 2.6921 34.7047 2.61217 34.6662 2.54215C34.6276 2.47213 34.569 2.4152 34.4979 2.37863C34.4268 2.34206 34.3465 2.32752 34.2671 2.33686C34.1877 2.3462 34.1129 2.379 34.0522 2.43107L29.5071 6.95284C29.0403 7.42305 28.6969 8.00135 28.5076 8.6363C28.3182 9.27125 28.2887 9.94317 28.4217 10.5923L29.1453 14.2317L32.7847 14.9532C33.4338 15.0862 34.1058 15.0567 34.7407 14.8673C35.3757 14.678 35.954 14.3346 36.4242 13.8678L40.9438 9.32482C40.9961 9.26403 41.029 9.189 41.0383 9.10938C41.0475 9.02975 41.0328 8.94917 40.996 8.87798C40.9591 8.80678 40.9018 8.74823 40.8315 8.70984C40.7611 8.67145 40.6808 8.65497 40.601 8.66253" stroke="#36558D" stroke-width="3.17392" stroke-linecap="round" stroke-linejoin="round"/>
</svg>
