<svg width="48" height="47" viewBox="0 0 48 47" fill="none" xmlns="http://www.w3.org/2000/svg">
<path d="M47.0703 34.0188C46.7446 33.1261 46.1173 32.6435 45.4056 32.2575C45.2729 32.1851 45.1522 32.1127 45.0437 32.0645C44.8265 31.9559 44.6094 31.8474 44.3923 31.7388C42.1726 30.5566 40.4355 29.0848 39.2412 27.3236C38.9034 26.829 38.6018 26.2982 38.3606 25.7553C38.252 25.4658 38.264 25.2969 38.3364 25.1401C38.4088 25.0195 38.5053 24.923 38.6259 24.8385C39.012 24.5852 39.398 24.3319 39.6634 24.163C40.1339 23.8493 40.5199 23.6081 40.7612 23.4392C41.6659 22.7998 42.3053 22.1243 42.7034 21.3643C43.2704 20.3027 43.3427 19.0602 42.9085 17.9383C42.3053 16.3459 40.8094 15.3688 38.9879 15.3688C38.6018 15.3688 38.2279 15.4049 37.8418 15.4894C37.7453 15.5135 37.6368 15.5376 37.5402 15.5618C37.5523 14.4761 37.5282 13.33 37.4317 12.1961C37.0939 8.22723 35.6945 6.15233 34.2469 4.49964C33.3181 3.46219 32.2324 2.58157 31.014 1.89395C28.8184 0.63936 26.3213 0 23.607 0C20.8928 0 18.4077 0.63936 16.2122 1.89395C14.9938 2.58157 13.9081 3.46219 12.9792 4.49964C11.5316 6.15233 10.1443 8.2393 9.79445 12.1961C9.69794 13.33 9.67382 14.4761 9.68588 15.5618C9.58937 15.5376 9.49287 15.5135 9.3843 15.4894C9.01033 15.4049 8.6243 15.3688 8.25034 15.3688C6.42877 15.3688 4.93291 16.358 4.32974 17.9383C3.89545 19.0602 3.96783 20.3027 4.53481 21.3643C4.93291 22.1243 5.57227 22.7998 6.47702 23.4392C6.71829 23.6081 7.09225 23.8493 7.57479 24.163C7.82812 24.3319 8.20208 24.5731 8.57605 24.8144C8.70875 24.8988 8.81732 25.0074 8.90176 25.1401C8.97414 25.2969 8.9862 25.4658 8.86557 25.7795C8.6243 26.3103 8.33478 26.829 7.99701 27.3115C6.82686 29.0245 5.13798 30.4842 2.9907 31.6543C1.85674 32.2575 0.67453 32.6556 0.167867 34.0188C-0.206098 35.0442 0.03517 36.2022 0.988178 37.1914C1.33802 37.5533 1.74817 37.867 2.19452 38.1083C3.1234 38.6149 4.1126 39.013 5.15005 39.2905C5.36719 39.3508 5.5602 39.4352 5.74115 39.5559C6.09099 39.8574 6.04274 40.3159 6.50115 40.9914C6.73035 41.3412 7.03194 41.6428 7.36971 41.8841C8.34684 42.5596 9.44461 42.5958 10.6027 42.6441C11.6522 42.6803 12.8344 42.7285 14.1976 43.1749C14.7646 43.3558 15.3436 43.7177 16.0192 44.1399C17.6477 45.1412 19.8674 46.5044 23.595 46.5044C27.3226 46.5044 29.5543 45.1291 31.1949 44.1279C31.8705 43.7177 32.4495 43.3558 32.9924 43.1749C34.3434 42.7285 35.5377 42.6803 36.5872 42.6441C37.7453 42.5958 38.8431 42.5596 39.8202 41.8841C40.2304 41.5946 40.5682 41.2327 40.8094 40.7984C41.1472 40.2314 41.1351 39.8333 41.4488 39.5559C41.6177 39.4352 41.8107 39.3508 42.0037 39.3025C43.0411 39.0251 44.0545 38.627 44.9954 38.1083C45.4659 37.8549 45.9002 37.5171 46.2621 37.1191L46.2741 37.107C47.2151 36.1419 47.4443 35.008 47.0703 34.0188ZM43.765 35.7921C41.7504 36.9019 40.3993 36.7813 39.3618 37.4568C38.4691 38.0238 38.9999 39.2543 38.3606 39.7006C37.5644 40.2435 35.2241 39.6644 32.2082 40.6657C29.7111 41.486 28.1308 43.8625 23.6432 43.8625C19.1556 43.8625 17.6115 41.4981 15.0782 40.6657C12.0624 39.6644 9.72207 40.2555 8.92589 39.7006C8.28653 39.2543 8.80525 38.0238 7.92463 37.4568C6.87511 36.7813 5.53608 36.9019 3.52149 35.7921C2.23071 35.0803 2.96657 34.6461 3.38879 34.441C10.6992 30.9064 11.8694 25.4417 11.9176 25.0315C11.9779 24.5369 12.0503 24.1509 11.5075 23.6563C10.9887 23.1738 8.67256 21.7382 8.02113 21.2919C6.95955 20.544 6.48908 19.8081 6.83892 18.8913C7.08019 18.264 7.6713 18.0227 8.28653 18.0227C8.47954 18.0227 8.67256 18.0468 8.86557 18.083C10.0357 18.3364 11.1697 18.9154 11.8211 19.0843C11.9055 19.1084 11.9779 19.1205 12.0624 19.1205C12.4122 19.1205 12.5328 18.9395 12.5087 18.5414C12.4363 17.2627 12.2554 14.7777 12.4605 12.4494C12.7379 9.25262 13.7633 7.66025 14.9938 6.2609C15.5849 5.58535 18.3474 2.66601 23.6432 2.66601C28.9391 2.66601 31.7016 5.57329 32.2927 6.24884C33.5231 7.64819 34.5485 9.24056 34.826 12.4374C35.0311 14.7656 34.8501 17.2506 34.7657 18.5294C34.7415 18.9516 34.8622 19.1084 35.212 19.1084C35.2965 19.1084 35.3688 19.0963 35.4533 19.0722C36.1047 18.9154 37.2387 18.3243 38.4088 18.071C38.6018 18.0227 38.7948 18.0106 38.9879 18.0106C39.6031 18.0106 40.1942 18.2519 40.4355 18.8792C40.7853 19.796 40.3148 20.5319 39.2532 21.2798C38.6139 21.7262 36.2977 23.1617 35.7669 23.6442C35.2241 24.1388 35.2965 24.5249 35.3568 25.0195C35.405 25.4296 36.5752 30.8943 43.8856 34.4289C44.3199 34.634 45.0437 35.0803 43.765 35.7921Z" fill="white"/>
</svg>
