<svg width="44" height="44" viewBox="0 0 44 44" fill="none" xmlns="http://www.w3.org/2000/svg">
<path d="M1.58691 13.6204C1.80697 9.17694 2.46503 6.40505 4.43709 4.43722C6.40492 2.46515 9.17682 1.80709 13.6203 1.58704M41.7899 13.6204C41.5698 9.17694 40.9118 6.40505 38.9397 4.43722C36.9719 2.46515 34.2 1.80709 29.7565 1.58704M29.7565 41.79C34.2 41.57 36.9719 40.9119 38.9397 38.9398C40.9118 36.972 41.5698 34.2001 41.7899 29.7566M13.6203 41.79C9.17682 41.57 6.40492 40.9119 4.43709 38.9398C2.46503 36.972 1.80697 34.2001 1.58691 29.7566" stroke="#36558D" stroke-width="3.17392" stroke-linecap="round" stroke-linejoin="round"/>
<path d="M37.8441 20.2455C38.3582 20.8888 38.6164 21.2125 38.6164 21.6886C38.6164 22.1647 38.3582 22.4884 37.8441 23.1317C35.5313 26.0263 29.6257 32.2684 21.6888 32.2684C13.7519 32.2684 7.84628 26.0263 5.53355 23.1317C5.01938 22.4884 4.76123 22.1647 4.76123 21.6886C4.76123 21.2125 5.01938 20.8888 5.53355 20.2455C7.84628 17.3509 13.7519 11.1089 21.6888 11.1089C29.6257 11.1089 35.5313 17.3509 37.8441 20.2455Z" stroke="#36558D" stroke-width="3.17392"/>
<path d="M25.9203 21.6886C25.9203 20.5662 25.4745 19.4898 24.6808 18.6962C23.8872 17.9025 22.8108 17.4567 21.6884 17.4567C20.5661 17.4567 19.4897 17.9025 18.696 18.6962C17.9024 19.4898 17.4565 20.5662 17.4565 21.6886C17.4565 22.8109 17.9024 23.8873 18.696 24.681C19.4897 25.4746 20.5661 25.9205 21.6884 25.9205C22.8108 25.9205 23.8872 25.4746 24.6808 24.681C25.4745 23.8873 25.9203 22.8109 25.9203 21.6886Z" stroke="#36558D" stroke-width="3.17392"/>
</svg>
