<svg width="41" height="47" viewBox="0 0 41 47" fill="none" xmlns="http://www.w3.org/2000/svg">
<path d="M34.4972 9.32166C31.9922 7.68836 30.1842 5.07506 29.6202 2.02867C29.4983 1.37047 29.4314 0.693082 29.4314 0H21.4363L21.4235 32.0414C21.2891 35.6295 18.336 38.5093 14.7157 38.5093C13.5905 38.5093 12.531 38.228 11.5982 37.7371C9.459 36.6114 7.99506 34.3691 7.99506 31.7888C7.99506 28.0828 11.0101 25.0678 14.7157 25.0678C15.4074 25.0678 16.071 25.1819 16.6987 25.3785V17.2165C16.0491 17.128 15.3891 17.0727 14.7157 17.0727C6.60129 17.0727 0 23.6743 0 31.7888C0 36.7673 2.48741 41.1732 6.28224 43.8373C8.67252 45.5154 11.58 46.5044 14.7157 46.5044C22.8301 46.5044 29.4314 39.9032 29.4314 31.7888V15.541C32.5672 17.7917 36.409 19.118 40.5545 19.118V11.1229C38.3214 11.1229 36.2416 10.459 34.4972 9.32166Z" fill="white"/>
</svg>
