<svg width="49" height="47" viewBox="0 0 49 47" fill="none" xmlns="http://www.w3.org/2000/svg">
<path d="M24.1281 0C10.9394 0 0.20617 10.3379 0.201519 23.043C0.198419 27.1059 1.30212 31.0712 3.39483 34.5637L0 46.5045L12.6849 43.3003C16.2133 45.146 20.1367 46.1088 24.1188 46.1061H24.1281C37.3167 46.1061 48.05 35.7666 48.0546 23.0616C48.0577 16.9075 45.5713 11.1146 41.0526 6.7602C36.5354 2.40428 30.5286 0.00155015 24.1281 0ZM24.1281 42.2136H24.1203C20.5519 42.2136 17.0516 41.2898 13.9978 39.5443L13.2693 39.1289L5.74485 41.0293L7.75384 33.9607L7.28105 33.2367C5.29516 30.208 4.238 26.6647 4.23966 23.043C4.24431 12.4818 13.167 3.89242 24.1358 3.89242C29.4466 3.89397 34.4396 5.88901 38.1957 9.50861C41.9517 13.1282 44.018 17.9414 44.0149 23.06C44.0103 33.6212 35.0892 42.2136 24.1265 42.2136H24.1281ZM35.0365 27.867C34.4381 27.5802 31.499 26.1867 30.9503 25.9929C30.4031 25.8022 30.0047 25.703 29.6063 26.2797C29.2094 26.8563 28.0623 28.1538 27.7151 28.5367C27.3648 28.9211 27.016 28.9676 26.4176 28.6809C25.8193 28.3925 23.8924 27.7849 21.6106 25.8224C19.8326 24.297 18.6328 22.412 18.284 21.8338C17.9352 21.2587 18.2468 20.9472 18.546 20.6604C18.8142 20.4046 19.1443 19.9892 19.442 19.6528C19.7396 19.3164 19.8388 19.0761 20.0403 18.6917C20.2387 18.3088 20.1395 17.9709 19.9892 17.6841C19.8388 17.3942 18.6452 14.5605 18.1445 13.4088C17.6608 12.2865 17.1679 12.4368 16.8005 12.4182C16.4517 12.4027 16.0549 12.3981 15.6534 12.3981C15.2581 12.3981 14.6086 12.5423 14.0598 13.1189C13.5126 13.6956 11.9671 15.0876 11.9671 17.9213C11.9671 20.7565 14.1095 23.4941 14.4086 23.8785C14.7078 24.2614 18.625 30.0791 24.6226 32.5748C26.0487 33.1654 27.1617 33.5204 28.0313 33.787C29.4637 34.2257 30.7673 34.1622 31.7966 34.0149C32.9438 33.849 35.3341 32.6229 35.8301 31.2789C36.3293 29.9349 36.3293 28.7816 36.1805 28.5413C36.0348 28.3011 35.6348 28.1569 35.0365 27.867Z" fill="white"/>
</svg>
